<mxfile host="Electron" modified="2023-12-05T12:43:01.643Z" agent="Mozilla/5.0 (Windows NT 10.0; Win64; x64) AppleWebKit/537.36 (KHTML, like Gecko) draw.io/22.1.2 Chrome/114.0.5735.289 Electron/25.9.4 Safari/537.36" etag="5afw6abMjsyyrTa7ke9_" version="22.1.2" type="device">
  <diagram name="Page-1" id="pimTWOLfXsImeWU6ckJN">
    <mxGraphModel dx="1183" dy="758" grid="1" gridSize="10" guides="1" tooltips="1" connect="1" arrows="1" fold="1" page="1" pageScale="1" pageWidth="1100" pageHeight="850" math="0" shadow="0">
      <root>
        <mxCell id="0" />
        <mxCell id="1" parent="0" />
        <mxCell id="Y3-hhElbFzRG0qPc0H9T-2" style="edgeStyle=orthogonalEdgeStyle;rounded=0;orthogonalLoop=1;jettySize=auto;html=1;exitX=0.5;exitY=0;exitDx=0;exitDy=0;startArrow=classic;startFill=1;endArrow=none;endFill=0;" edge="1" parent="1" source="Y3-hhElbFzRG0qPc0H9T-1">
          <mxGeometry relative="1" as="geometry">
            <mxPoint x="560" y="140" as="targetPoint" />
          </mxGeometry>
        </mxCell>
        <mxCell id="Y3-hhElbFzRG0qPc0H9T-7" value="RESET" style="edgeLabel;html=1;align=center;verticalAlign=middle;resizable=0;points=[];" vertex="1" connectable="0" parent="Y3-hhElbFzRG0qPc0H9T-2">
          <mxGeometry x="0.18" y="-2" relative="1" as="geometry">
            <mxPoint x="-2" y="-35" as="offset" />
          </mxGeometry>
        </mxCell>
        <mxCell id="Y3-hhElbFzRG0qPc0H9T-5" style="edgeStyle=orthogonalEdgeStyle;rounded=0;orthogonalLoop=1;jettySize=auto;html=1;exitX=0.5;exitY=1;exitDx=0;exitDy=0;entryX=0.5;entryY=0;entryDx=0;entryDy=0;" edge="1" parent="1" source="Y3-hhElbFzRG0qPc0H9T-1" target="Y3-hhElbFzRG0qPc0H9T-3">
          <mxGeometry relative="1" as="geometry" />
        </mxCell>
        <mxCell id="Y3-hhElbFzRG0qPc0H9T-16" value="DEAL BUTTON" style="edgeLabel;html=1;align=center;verticalAlign=middle;resizable=0;points=[];" vertex="1" connectable="0" parent="Y3-hhElbFzRG0qPc0H9T-5">
          <mxGeometry x="-0.2" y="-1" relative="1" as="geometry">
            <mxPoint as="offset" />
          </mxGeometry>
        </mxCell>
        <mxCell id="Y3-hhElbFzRG0qPc0H9T-1" value="Load" style="ellipse;whiteSpace=wrap;html=1;aspect=fixed;" vertex="1" parent="1">
          <mxGeometry x="520" y="200" width="80" height="80" as="geometry" />
        </mxCell>
        <mxCell id="Y3-hhElbFzRG0qPc0H9T-6" style="edgeStyle=orthogonalEdgeStyle;rounded=0;orthogonalLoop=1;jettySize=auto;html=1;exitX=0.5;exitY=1;exitDx=0;exitDy=0;entryX=0.5;entryY=0;entryDx=0;entryDy=0;" edge="1" parent="1" source="Y3-hhElbFzRG0qPc0H9T-3" target="Y3-hhElbFzRG0qPc0H9T-4">
          <mxGeometry relative="1" as="geometry" />
        </mxCell>
        <mxCell id="Y3-hhElbFzRG0qPc0H9T-17" value="DEAL BUTTON" style="edgeLabel;html=1;align=center;verticalAlign=middle;resizable=0;points=[];" vertex="1" connectable="0" parent="Y3-hhElbFzRG0qPc0H9T-6">
          <mxGeometry x="-0.0333" y="-1" relative="1" as="geometry">
            <mxPoint as="offset" />
          </mxGeometry>
        </mxCell>
        <mxCell id="Y3-hhElbFzRG0qPc0H9T-3" value="Idle" style="ellipse;whiteSpace=wrap;html=1;aspect=fixed;" vertex="1" parent="1">
          <mxGeometry x="520" y="310" width="80" height="80" as="geometry" />
        </mxCell>
        <mxCell id="Y3-hhElbFzRG0qPc0H9T-9" style="edgeStyle=orthogonalEdgeStyle;rounded=0;orthogonalLoop=1;jettySize=auto;html=1;exitX=0.5;exitY=1;exitDx=0;exitDy=0;entryX=0.5;entryY=0;entryDx=0;entryDy=0;" edge="1" parent="1" source="Y3-hhElbFzRG0qPc0H9T-4" target="Y3-hhElbFzRG0qPc0H9T-8">
          <mxGeometry relative="1" as="geometry" />
        </mxCell>
        <mxCell id="Y3-hhElbFzRG0qPc0H9T-18" value="DEAL BUTTON" style="edgeLabel;html=1;align=center;verticalAlign=middle;resizable=0;points=[];" vertex="1" connectable="0" parent="Y3-hhElbFzRG0qPc0H9T-9">
          <mxGeometry x="-0.2556" y="-1" relative="1" as="geometry">
            <mxPoint as="offset" />
          </mxGeometry>
        </mxCell>
        <mxCell id="Y3-hhElbFzRG0qPc0H9T-4" value="Deal" style="ellipse;whiteSpace=wrap;html=1;aspect=fixed;" vertex="1" parent="1">
          <mxGeometry x="520" y="420" width="80" height="80" as="geometry" />
        </mxCell>
        <mxCell id="Y3-hhElbFzRG0qPc0H9T-15" style="edgeStyle=orthogonalEdgeStyle;rounded=0;orthogonalLoop=1;jettySize=auto;html=1;exitX=0.5;exitY=1;exitDx=0;exitDy=0;entryX=0.5;entryY=1;entryDx=0;entryDy=0;" edge="1" parent="1" source="Y3-hhElbFzRG0qPc0H9T-8" target="Y3-hhElbFzRG0qPc0H9T-10">
          <mxGeometry relative="1" as="geometry">
            <Array as="points">
              <mxPoint x="560" y="650" />
              <mxPoint x="370" y="650" />
            </Array>
          </mxGeometry>
        </mxCell>
        <mxCell id="Y3-hhElbFzRG0qPc0H9T-21" value="STAND" style="edgeLabel;html=1;align=center;verticalAlign=middle;resizable=0;points=[];" vertex="1" connectable="0" parent="Y3-hhElbFzRG0qPc0H9T-15">
          <mxGeometry x="-0.1383" y="-2" relative="1" as="geometry">
            <mxPoint as="offset" />
          </mxGeometry>
        </mxCell>
        <mxCell id="Y3-hhElbFzRG0qPc0H9T-8" value="Player Turn" style="ellipse;whiteSpace=wrap;html=1;aspect=fixed;" vertex="1" parent="1">
          <mxGeometry x="520" y="530" width="80" height="80" as="geometry" />
        </mxCell>
        <mxCell id="Y3-hhElbFzRG0qPc0H9T-14" style="edgeStyle=orthogonalEdgeStyle;rounded=0;orthogonalLoop=1;jettySize=auto;html=1;exitX=0.5;exitY=0;exitDx=0;exitDy=0;entryX=0.5;entryY=1;entryDx=0;entryDy=0;" edge="1" parent="1" source="Y3-hhElbFzRG0qPc0H9T-10" target="Y3-hhElbFzRG0qPc0H9T-12">
          <mxGeometry relative="1" as="geometry" />
        </mxCell>
        <mxCell id="Y3-hhElbFzRG0qPc0H9T-10" value="Dealer Turn" style="ellipse;whiteSpace=wrap;html=1;aspect=fixed;" vertex="1" parent="1">
          <mxGeometry x="330" y="530" width="80" height="80" as="geometry" />
        </mxCell>
        <mxCell id="Y3-hhElbFzRG0qPc0H9T-12" value="End Game" style="ellipse;whiteSpace=wrap;html=1;aspect=fixed;" vertex="1" parent="1">
          <mxGeometry x="330" y="370" width="80" height="80" as="geometry" />
        </mxCell>
        <mxCell id="Y3-hhElbFzRG0qPc0H9T-13" style="edgeStyle=orthogonalEdgeStyle;rounded=0;orthogonalLoop=1;jettySize=auto;html=1;exitX=0.5;exitY=0;exitDx=0;exitDy=0;entryX=0;entryY=0.5;entryDx=0;entryDy=0;" edge="1" parent="1" source="Y3-hhElbFzRG0qPc0H9T-12" target="Y3-hhElbFzRG0qPc0H9T-3">
          <mxGeometry relative="1" as="geometry" />
        </mxCell>
        <mxCell id="Y3-hhElbFzRG0qPc0H9T-19" style="edgeStyle=orthogonalEdgeStyle;rounded=0;orthogonalLoop=1;jettySize=auto;html=1;" edge="1" parent="1">
          <mxGeometry relative="1" as="geometry">
            <mxPoint x="590" y="540" as="sourcePoint" />
            <mxPoint x="588" y="600" as="targetPoint" />
            <Array as="points">
              <mxPoint x="640" y="540" />
              <mxPoint x="640" y="600" />
            </Array>
          </mxGeometry>
        </mxCell>
        <mxCell id="Y3-hhElbFzRG0qPc0H9T-20" value="HIT" style="edgeLabel;html=1;align=center;verticalAlign=middle;resizable=0;points=[];" vertex="1" connectable="0" parent="Y3-hhElbFzRG0qPc0H9T-19">
          <mxGeometry x="-0.0389" y="2" relative="1" as="geometry">
            <mxPoint as="offset" />
          </mxGeometry>
        </mxCell>
      </root>
    </mxGraphModel>
  </diagram>
</mxfile>
